<svg width="778" height="623" xmlns="http://www.w3.org/2000/svg" xmlns:xlink="http://www.w3.org/1999/xlink" xml:space="preserve" overflow="hidden"><defs><clipPath id="clip0"><rect x="2494" y="444" width="778" height="623"/></clipPath></defs><g clip-path="url(#clip0)" transform="translate(-2494 -444)"><path d="M1.14583-1.16028e-06 1.14617 333.483-1.1455 333.483-1.14583 1.16028e-06ZM13.7503 328.9 0.000360892 356.4-13.7497 328.9Z" transform="matrix(1 0 0 -1 2815 828.4)"/><path d="M0.76463-0.85339 219.413 195.054 217.884 196.761-0.76463 0.85339ZM224.411 182.608 235.717 211.2 206.06 203.09Z" transform="matrix(-1 0 0 1 2814.72 828)"/><path d="M2815 826.854 3221.08 826.855 3221.08 829.146 2815 829.146ZM3216.5 814.25 3244 828 3216.5 841.75Z"/><path d="M0.794396-0.825754 261.494 249.974 259.906 251.626-0.794396 0.825754ZM-9.53275 9.90904C-15.0054 4.64425-15.1738-4.06014-9.90904-9.53275-4.64425-15.0054 4.06014-15.1738 9.53275-9.90904 15.0054-4.64425 15.1738 4.06014 9.90904 9.53275 4.64425 15.0054-4.06014 15.1738-9.53275 9.90904ZM270.233 240.891C275.705 246.156 275.874 254.86 270.609 260.333 265.344 265.805 256.64 265.974 251.167 260.709 245.695 255.444 245.526 246.74 250.791 241.267 256.056 235.795 264.76 235.626 270.233 240.891Z" fill="#4472C4" transform="matrix(1 0 0 -1 2637 867.8)"/><path d="M2897.52 614.981 3113.67 726.09 3112.63 728.128 2896.48 617.019ZM3119.44 714.88C3126.19 718.351 3128.85 726.641 3125.38 733.395 3121.91 740.149 3113.62 742.809 3106.86 739.338 3100.11 735.866 3097.45 727.576 3100.92 720.823 3104.39 714.069 3112.68 711.408 3119.44 714.88Z" fill="#4472C4"/><path d="M2567.39 846.983 2554.7 869.439 2568.64 869.439 2568.03 857.961C2567.96 856.393 2567.9 854.432 2567.86 852.08 2567.81 849.727 2567.78 848.028 2567.78 846.983ZM2567.61 839.462 2572.99 839.462 2575.55 879.205C2575.67 881.082 2575.89 882.55 2576.2 883.607 2576.5 884.665 2576.93 885.449 2577.46 885.96 2578 886.471 2578.77 886.797 2579.8 886.94L2579.4 888.687 2564.58 888.687 2564.97 886.94C2566.37 886.821 2567.42 886.275 2568.1 885.3 2568.79 884.326 2569.14 882.615 2569.14 880.168 2569.14 879.241 2569.1 878.231 2569.03 877.138L2568.78 872.54 2553.1 872.54 2551.14 876.033C2550.21 877.672 2549.53 879.08 2549.11 880.257 2548.68 881.433 2548.46 882.473 2548.46 883.376 2548.46 885.372 2549.66 886.56 2552.06 886.94L2551.67 888.687 2537.09 888.687 2537.49 886.94C2538.22 886.845 2538.92 886.554 2539.57 886.067 2540.22 885.58 2540.92 884.843 2541.66 883.857 2542.39 882.871 2543.43 881.237 2544.76 878.956Z" fill-rule="evenodd"/><text fill="#000000" fill-opacity="0" font-family="Arial,Arial_MSFontService,sans-serif" font-size="49.2251" x="2537.09" y="882.534">𝐴</text><path d="M2897.4 562.829 2892.98 583.253C2894.43 583.348 2896.21 583.396 2898.33 583.396 2901.94 583.396 2904.65 582.986 2906.47 582.166 2908.29 581.346 2909.85 579.891 2911.16 577.8 2912.46 575.709 2913.12 573.13 2913.12 570.065 2913.12 567.665 2912.33 565.859 2910.75 564.647 2909.17 563.435 2906.81 562.829 2903.67 562.829ZM2907.95 541.015C2905.88 541.015 2903.96 541.05 2902.18 541.122L2898.15 559.692 2903.17 559.692C2905.98 559.692 2908.2 559.467 2909.86 559.015 2911.51 558.564 2912.96 557.756 2914.22 556.591 2915.48 555.427 2916.4 554.15 2916.97 552.76 2917.54 551.369 2917.82 549.759 2917.82 547.93 2917.82 546.908 2917.64 545.951 2917.29 545.06 2916.93 544.169 2916.32 543.409 2915.45 542.779 2914.59 542.149 2913.59 541.698 2912.46 541.425 2911.33 541.151 2909.83 541.015 2907.95 541.015ZM2891.95 537.878 2909.59 537.878C2913.15 537.878 2916.01 538.252 2918.16 539.001 2920.31 539.749 2921.89 540.848 2922.9 542.298 2923.91 543.747 2924.42 545.565 2924.42 547.751 2924.42 550.864 2923.47 553.579 2921.57 555.896 2919.66 558.213 2916.84 559.989 2913.08 561.225L2913.01 561.617C2915.22 562.496 2916.92 563.75 2918.11 565.378 2919.3 567.005 2919.89 568.853 2919.89 570.92 2919.89 574.081 2919.17 576.784 2917.72 579.03 2916.27 581.275 2914.09 583.087 2911.19 584.465 2908.29 585.844 2904.05 586.533 2898.47 586.533L2882.61 586.533 2883 584.786C2883.9 584.644 2884.58 584.412 2885.03 584.091 2885.48 583.77 2885.86 583.325 2886.17 582.754 2886.48 582.184 2886.76 581.489 2887.03 580.669 2887.29 579.849 2887.68 578.263 2888.2 575.911L2894.26 548.464C2894.78 546.088 2895.05 544.211 2895.05 542.833 2895.05 541.668 2894.77 540.86 2894.23 540.409 2893.68 539.957 2892.79 539.696 2891.55 539.625Z" fill-rule="evenodd"/><text fill="#000000" fill-opacity="0" font-family="Arial,Arial_MSFontService,sans-serif" font-size="48.6548" x="2882.61" y="580.451">𝐵</text><path d="M3187.29 692.203C3189.45 692.203 3191.45 692.334 3193.29 692.595 3195.14 692.857 3197.19 693.332 3199.44 694.021L3197.3 703.681 3193.88 703.681C3193.69 700.758 3193.06 698.649 3191.98 697.354 3190.89 696.059 3189.15 695.411 3186.75 695.411 3183.47 695.411 3180.43 697.051 3177.61 700.33 3174.79 703.61 3172.57 707.94 3170.93 713.323 3169.29 718.705 3168.47 723.701 3168.47 728.311 3168.47 731.923 3169.11 734.585 3170.39 736.296 3171.68 738.007 3173.65 738.862 3176.31 738.862 3178.09 738.862 3179.65 738.595 3180.98 738.06 3182.31 737.525 3183.56 736.622 3184.72 735.351 3185.89 734.08 3187.04 732.303 3188.18 730.022L3191.6 730.022 3189.43 740.145C3184.98 741.381 3180.33 741.999 3175.45 741.999 3170.99 741.999 3167.59 740.716 3165.26 738.149 3162.93 735.583 3161.77 731.828 3161.77 726.885 3161.77 723.392 3162.39 719.365 3163.64 714.802 3164.89 710.24 3166.65 706.235 3168.93 702.79 3171.21 699.344 3173.91 696.718 3177.02 694.912 3180.14 693.106 3183.56 692.203 3187.29 692.203Z" fill-rule="evenodd"/><text fill="#000000" fill-opacity="0" font-family="Arial,Arial_MSFontService,sans-serif" font-size="49.7954" x="3161.77" y="735.774">𝐶</text><path d="M2750.62 678.904 2737.93 701.361 2751.87 701.361 2751.26 689.883C2751.19 688.315 2751.13 686.354 2751.09 684.002 2751.04 681.649 2751.01 679.95 2751.01 678.904ZM2750.84 671.383 2756.22 671.383 2758.78 711.127C2758.9 713.004 2759.12 714.472 2759.43 715.529 2759.73 716.587 2760.16 717.371 2760.69 717.882 2761.23 718.393 2762 718.719 2763.03 718.862L2762.63 720.609 2747.81 720.609 2748.2 718.862C2749.6 718.743 2750.65 718.197 2751.33 717.222 2752.02 716.248 2752.37 714.537 2752.37 712.09 2752.37 711.163 2752.33 710.153 2752.26 709.06L2752.01 704.462 2736.33 704.462 2734.37 707.955C2733.44 709.594 2732.76 711.002 2732.34 712.179 2731.91 713.355 2731.69 714.395 2731.69 715.298 2731.69 717.294 2732.89 718.482 2735.29 718.862L2734.9 720.609 2720.32 720.609 2720.72 718.862C2721.45 718.767 2722.15 718.476 2722.8 717.989 2723.45 717.502 2724.15 716.765 2724.89 715.779 2725.62 714.793 2726.66 713.159 2727.99 710.878Z" fill-rule="evenodd"/><text fill="#000000" fill-opacity="0" font-family="Arial,Arial_MSFontService,sans-serif" font-size="49.2251" x="2720.32" y="714.455">𝐴</text><path d="M2776 664.718 2782.66 664.718 2782.66 666.75 2774.07 687.424 2771.04 686.532Z" fill-rule="evenodd"/><text fill="#000000" fill-opacity="0" font-family="Arial,Arial_MSFontService,sans-serif" font-size="22.7056" x="2771.04" y="684.585">′</text><path d="M3056.02 614.387C3058.19 614.387 3060.19 614.518 3062.03 614.779 3063.87 615.041 3065.92 615.516 3068.18 616.205L3066.04 625.865 3062.62 625.865C3062.43 622.942 3061.79 620.833 3060.71 619.538 3059.63 618.243 3057.89 617.595 3055.49 617.595 3052.21 617.595 3049.16 619.235 3046.35 622.514 3043.53 625.794 3041.3 630.124 3039.66 635.507 3038.02 640.889 3037.2 645.885 3037.2 650.495 3037.2 654.107 3037.85 656.769 3039.13 658.48 3040.41 660.191 3042.38 661.046 3045.05 661.046 3046.83 661.046 3048.38 660.779 3049.72 660.244 3051.05 659.709 3052.29 658.806 3053.46 657.535 3054.62 656.264 3055.77 654.487 3056.92 652.206L3060.34 652.206 3058.16 662.329C3053.72 663.565 3049.06 664.183 3044.19 664.183 3039.72 664.183 3036.32 662.9 3034 660.333 3031.67 657.767 3030.5 654.012 3030.5 649.07 3030.5 645.576 3031.13 641.549 3032.37 636.986 3033.62 632.424 3035.39 628.419 3037.67 624.974 3039.95 621.528 3042.65 618.902 3045.76 617.096 3048.87 615.29 3052.29 614.387 3056.02 614.387ZM3078.5 607.722 3085.16 607.722 3085.16 609.754 3076.57 630.427 3073.54 629.536Z" fill-rule="evenodd"/><text fill="#000000" fill-opacity="0" font-family="Arial,Arial_MSFontService,sans-serif" font-size="56.4609" x="3030.5" y="657.125">𝐶′</text><path d="M2772.35 742.526 2785.71 729.971 2787.28 731.641 2773.92 744.196ZM2791.14 725.607 2800.14 718.415 2805.81 714.5 2807.11 716.386 2801.47 720.278 2801.54 720.23 2792.57 727.397ZM2811.47 710.597 2815.08 708.109 2827.24 701.086 2828.39 703.07 2816.27 710.071 2816.35 710.022 2812.77 712.484ZM2833.37 697.794 2846.82 691.262 2850.03 689.978 2850.88 692.106 2847.7 693.375 2847.78 693.341 2834.37 699.855ZM2856.42 687.429 2863.43 684.631 2873.82 681.422 2874.5 683.611 2864.15 686.807 2864.24 686.776 2857.27 689.558ZM2880.39 679.393 2880.45 679.374 2897.74 675.36 2898.42 675.254 2898.77 677.518 2898.14 677.618 2898.22 677.602 2881.01 681.597 2881.09 681.576 2881.07 681.583ZM2905.21 674.182 2915.31 672.588 2923.48 671.925 2923.66 674.209 2915.54 674.868 2915.62 674.858 2905.56 676.446ZM2930.33 671.368 2933.06 671.146 2948.74 671.049 2948.75 673.341 2933.12 673.437 2933.21 673.434 2930.51 673.652ZM2955.69 671.369 2968.69 672.258 2974.02 673.025 2973.69 675.293 2968.4 674.533 2968.49 674.542 2955.53 673.655ZM2980.83 674.003 2986.47 674.814 2998.88 677.616 2998.37 679.852 2986.01 677.059 2986.1 677.076 2980.5 676.271ZM3005.64 679.268 3021.56 684.145 3023.21 684.786 3022.37 686.921 3020.77 686.295 3020.85 686.323 3004.97 681.459ZM3029.61 687.284 3038.64 690.808 3037.81 692.943 3028.78 689.419ZM2782.55 753.38C2777.02 758.581 2768.32 758.311 2763.12 752.778 2757.92 747.244 2758.19 738.542 2763.72 733.342 2769.25 728.141 2777.95 728.411 2783.15 733.944 2788.36 739.478 2788.09 748.18 2782.55 753.38ZM3043.22 679.065C3050.3 681.825 3053.8 689.798 3051.04 696.872 3048.28 703.947 3040.3 707.445 3033.23 704.685 3026.15 701.925 3022.66 693.953 3025.42 686.878 3028.18 679.803 3036.15 676.306 3043.22 679.065Z" fill="#ED7D31"/></g></svg>